<?xml version="1.0" encoding="UTF-8" standalone="no"?>
<!DOCTYPE svg PUBLIC "-//W3C//DTD SVG 20010904//EN"
"http://www.w3.org/TR/2001/REC-SVG-20010904/DTD/svg10.dtd">
<!-- Created with Sodipodi ("http://www.sodipodi.com/") -->
<svg
   xmlns="http://www.w3.org/2000/svg"
   xmlns:xap="http://ns.adobe.com/xap/1.0/"
   xmlns:xapGImg="http://ns.adobe.com/xap/1.0/g/img/"
   xmlns:sodipodi="http://sodipodi.sourceforge.net/DTD/sodipodi-0.dtd"
   xmlns:ns="http://ns.adobe.com/SaveForWeb/1.0/"
   xmlns:rdf="http://www.w3.org/1999/02/22-rdf-syntax-ns#"
   xmlns:xapMM="http://ns.adobe.com/xap/1.0/mm/"
   xmlns:pdf="http://ns.adobe.com/pdf/1.3/"
   xmlns:dc="http://purl.org/dc/elements/1.1/"
   xmlns:a="http://ns.adobe.com/AdobeSVGViewerExtensions/3.0/"
   xmlns:x="adobe:ns:meta/"
   xmlns:xlink="http://www.w3.org/1999/xlink"
   width="48pt"
   height="48pt"
   viewBox="0 0 256 256"
   overflow="visible"
   enable-background="new 0 0 256 256"
   xml:space="preserve"
   id="svg3232"
   sodipodi:version="0.34"
   sodipodi:docname="/home/cschalle/Themes/gnome-themes-extras/Nuvola/icons/scalable/emblems/emblem-sound.svg"
   sodipodi:docbase="/home/cschalle/Themes/gnome-themes-extras/Nuvola/icons/scalable/emblems/"><defs
   id="defs3296"><linearGradient
   id="XMLID_7_"
   gradientUnits="userSpaceOnUse"
   x1="128.9995"
   y1="11"
   x2="128.9995"
   y2="245.0005"><stop
   offset="0"
   style="stop-color:#494949"
   id="stop3239" /><stop
   offset="1"
   style="stop-color:#000000"
   id="stop3240" /><a:midPointStop
   offset="0"
   style="stop-color:#494949"
   id="midPointStop3241" /><a:midPointStop
   offset="0.5"
   style="stop-color:#494949"
   id="midPointStop3242" /><a:midPointStop
   offset="1"
   style="stop-color:#000000"
   id="midPointStop3243" /></linearGradient><linearGradient
   id="XMLID_8_"
   gradientUnits="userSpaceOnUse"
   x1="29.0532"
   y1="29.0532"
   x2="226.9471"
   y2="226.9471"><stop
   offset="0"
   style="stop-color:#FFFFFF"
   id="stop3247" /><stop
   offset="1"
   style="stop-color:#DADADA"
   id="stop3248" /><a:midPointStop
   offset="0"
   style="stop-color:#FFFFFF"
   id="midPointStop3249" /><a:midPointStop
   offset="0.5"
   style="stop-color:#FFFFFF"
   id="midPointStop3250" /><a:midPointStop
   offset="1"
   style="stop-color:#DADADA"
   id="midPointStop3251" /></linearGradient><linearGradient
   id="XMLID_9_"
   gradientUnits="userSpaceOnUse"
   x1="128.0024"
   y1="39.8628"
   x2="128.0024"
   y2="216.1587"><stop
   offset="0"
   style="stop-color:#003333"
   id="stop3256" /><stop
   offset="1"
   style="stop-color:#006600"
   id="stop3257" /><a:midPointStop
   offset="0"
   style="stop-color:#003333"
   id="midPointStop3258" /><a:midPointStop
   offset="0.5"
   style="stop-color:#003333"
   id="midPointStop3259" /><a:midPointStop
   offset="1"
   style="stop-color:#006600"
   id="midPointStop3260" /></linearGradient><linearGradient
   id="XMLID_10_"
   gradientUnits="userSpaceOnUse"
   x1="127.7437"
   y1="211.125"
   x2="127.7436"
   y2="44.9092"><stop
   offset="0"
   style="stop-color:#009933"
   id="stop3263" /><stop
   offset="1"
   style="stop-color:#00FF00"
   id="stop3264" /><a:midPointStop
   offset="0"
   style="stop-color:#009933"
   id="midPointStop3265" /><a:midPointStop
   offset="0.5"
   style="stop-color:#009933"
   id="midPointStop3266" /><a:midPointStop
   offset="1"
   style="stop-color:#00FF00"
   id="midPointStop3267" /></linearGradient><linearGradient
   id="XMLID_11_"
   gradientUnits="userSpaceOnUse"
   x1="126.2256"
   y1="55.0059"
   x2="126.2256"
   y2="283.1829"><stop
   offset="0"
   style="stop-color:#FFFFFF"
   id="stop3271" /><stop
   offset="0.382"
   style="stop-color:#00FF00"
   id="stop3272" /><stop
   offset="0.4331"
   style="stop-color:#00FB02"
   id="stop3273" /><stop
   offset="0.4874"
   style="stop-color:#00EE09"
   id="stop3274" /><stop
   offset="0.5432"
   style="stop-color:#00D913"
   id="stop3275" /><stop
   offset="0.5997"
   style="stop-color:#00BB22"
   id="stop3276" /><stop
   offset="0.6517"
   style="stop-color:#009933"
   id="stop3277" /><stop
   offset="0.8258"
   style="stop-color:#006600"
   id="stop3278" /><a:midPointStop
   offset="0"
   style="stop-color:#FFFFFF"
   id="midPointStop3279" /><a:midPointStop
   offset="0.5"
   style="stop-color:#FFFFFF"
   id="midPointStop3280" /><a:midPointStop
   offset="0.382"
   style="stop-color:#00FF00"
   id="midPointStop3281" /><a:midPointStop
   offset="0.6947"
   style="stop-color:#00FF00"
   id="midPointStop3282" /><a:midPointStop
   offset="0.6517"
   style="stop-color:#009933"
   id="midPointStop3283" /><a:midPointStop
   offset="0.5"
   style="stop-color:#009933"
   id="midPointStop3284" /><a:midPointStop
   offset="0.8258"
   style="stop-color:#006600"
   id="midPointStop3285" /></linearGradient><radialGradient
   id="XMLID_12_"
   cx="100.5962"
   cy="124.4897"
   r="86.1955"
   fx="100.5962"
   fy="124.4897"
   gradientTransform="matrix(0.826 -0.0247 -0.0247 0.738 18.1722 45.3572)"
   gradientUnits="userSpaceOnUse"><stop
   offset="0.3933"
   style="stop-color:#FFFFFF"
   id="stop3288" /><stop
   offset="0.7303"
   style="stop-color:#00E100"
   id="stop3289" /><a:midPointStop
   offset="0.3933"
   style="stop-color:#FFFFFF"
   id="midPointStop3290" /><a:midPointStop
   offset="0.5"
   style="stop-color:#FFFFFF"
   id="midPointStop3291" /><a:midPointStop
   offset="0.7303"
   style="stop-color:#00E100"
   id="midPointStop3292" /></radialGradient></defs><sodipodi:namedview
   id="base" /><metadata
   id="metadata3233"><ns:sfw><ns:slices><ns:slice
   x="0"
   y="0"
   width="256"
   height="256"
   sliceID="124165071" /></ns:slices><ns:sliceSourceBounds
   x="0"
   y="0"
   width="256"
   height="256"
   bottomLeftOrigin="true" /><ns:optimizationSettings><ns:targetSettings
   fileFormat="PNG24Format"
   targetSettingsID="0"><ns:PNG24Format
   transparency="true"
   includeCaption="false"
   interlaced="false"
   noMatteColor="false"
   matteColor="#FFFFFF"
   filtered="false" /></ns:targetSettings></ns:optimizationSettings></ns:sfw><xpacket>
begin='﻿' id='W5M0MpCehiHzreSzNTczkc9d'</xpacket><x:xmpmeta
   x:xmptk="XMP toolkit 3.0-29, framework 1.6"><rdf:RDF><rdf:Description
   rdf:about="uuid:6fb7133e-0d42-4d20-8954-32780fe62e43"><pdf:Producer>
Adobe PDF library 5.00</pdf:Producer></rdf:Description><rdf:Description
   rdf:about="uuid:6fb7133e-0d42-4d20-8954-32780fe62e43" /><rdf:Description
   rdf:about="uuid:6fb7133e-0d42-4d20-8954-32780fe62e43" /><rdf:Description
   rdf:about="uuid:6fb7133e-0d42-4d20-8954-32780fe62e43"><xap:CreateDate>
2004-01-26T11:58:28+02:00</xap:CreateDate><xap:ModifyDate>
2004-03-28T20:35:22Z</xap:ModifyDate><xap:CreatorTool>
Adobe Illustrator 10.0</xap:CreatorTool><xap:MetadataDate>
2004-02-16T23:09:30+01:00</xap:MetadataDate><xap:Thumbnails><rdf:Alt><rdf:li
   rdf:parseType="Resource"><xapGImg:format>
JPEG</xapGImg:format><xapGImg:width>
256</xapGImg:width><xapGImg:height>
256</xapGImg:height><xapGImg:image>
/9j/4AAQSkZJRgABAgEASABIAAD/7QAsUGhvdG9zaG9wIDMuMAA4QklNA+0AAAAAABAASAAAAAEA
AQBIAAAAAQAB/+4ADkFkb2JlAGTAAAAAAf/bAIQABgQEBAUEBgUFBgkGBQYJCwgGBggLDAoKCwoK
DBAMDAwMDAwQDA4PEA8ODBMTFBQTExwbGxscHx8fHx8fHx8fHwEHBwcNDA0YEBAYGhURFRofHx8f
Hx8fHx8fHx8fHx8fHx8fHx8fHx8fHx8fHx8fHx8fHx8fHx8fHx8fHx8fHx8f/8AAEQgBAAEAAwER
AAIRAQMRAf/EAaIAAAAHAQEBAQEAAAAAAAAAAAQFAwIGAQAHCAkKCwEAAgIDAQEBAQEAAAAAAAAA
AQACAwQFBgcICQoLEAACAQMDAgQCBgcDBAIGAnMBAgMRBAAFIRIxQVEGE2EicYEUMpGhBxWxQiPB
UtHhMxZi8CRygvElQzRTkqKyY3PCNUQnk6OzNhdUZHTD0uIIJoMJChgZhJRFRqS0VtNVKBry4/PE
1OT0ZXWFlaW1xdXl9WZ2hpamtsbW5vY3R1dnd4eXp7fH1+f3OEhYaHiImKi4yNjo+Ck5SVlpeYmZ
qbnJ2en5KjpKWmp6ipqqusra6voRAAICAQIDBQUEBQYECAMDbQEAAhEDBCESMUEFURNhIgZxgZEy
obHwFMHR4SNCFVJicvEzJDRDghaSUyWiY7LCB3PSNeJEgxdUkwgJChgZJjZFGidkdFU38qOzwygp
0+PzhJSktMTU5PRldYWVpbXF1eX1RlZmdoaWprbG1ub2R1dnd4eXp7fH1+f3OEhYaHiImKi4yNjo
+DlJWWl5iZmpucnZ6fkqOkpaanqKmqq6ytrq+v/aAAwDAQACEQMRAD8A9U4q7FXYq7FXYq7FXYq7
FXYq7FXYq7FXYq7FXYq7FXYq7FXYq7FXYq7FXYq7FXYq7FXYq7FXYq7FXYq7FXYq7FXYqlvmDzFo
3l7TJdT1e5W1tItuTbszHoiKN2Y+AxV4j5g/5ydvTcMnl/SYlgU0Se/LOzDxMcTIF/4M4qk//QzP
nv8A5YNL/wCRVx/2UYq7/oZnz3/ywaX/AMirj/soxV3/AEMz57/5YNL/AORVx/2UYq7/AKGZ89/8
sGl/8irj/soxV3/QzPnv/lg0v/kVcf8AZRirv+hmfPf/ACwaX/yKuP8AsoxV3/QzPnv/AJYNL/5F
XH/ZRirv+hmfPf8AywaX/wAirj/soxV3/QzPnv8A5YNL/wCRVx/2UYq7/oZnz3/ywaX/AMirj/so
xV3/AEMz57/5YNL/AORVx/2UYq7/AKGZ89/8sGl/8irj/soxV3/QzPnv/lg0v/kVcf8AZRirv+hm
fPf/ACwaX/yKuP8AsoxV3/QzPnv/AJYNL/5FXH/ZRirv+hmfPf8AywaX/wAirj/soxV3/QzPnv8A
5YNL/wCRVx/2UYq7/oZnz3/ywaX/AMirj/soxV3/AEMz57/5YNL/AORVx/2UYq7/AKGZ89/8sGl/
8irj/soxV3/QzPnv/lg0v/kVcf8AZRirv+hmfPf/ACwaX/yKuP8AsoxVFad/zk75oS4B1HSbG4t+
6W/qwP8A8E7zj/hcVeyeRfzJ8tec7Vn0yUx3kQBuLCaizJ25AAkMlf2l+mmKsqxV2KuxV2KuxV2K
vm/XDqf5ufmk+j287Q+XtJLqJF3VIY2CSzAHYvM9AvtTwOKvePLfk/y35bs0tdHsYrZVFGlCgyuf
GSQ/Ex+ZxVOK4q6oxVrkMVdyGKu5jFWvUGKu9RffFWvVX3xV3rL74q71l8DirXrp4HFXfWE8DirX
1hPA4q76yngcVd9Zj8D+GKtfWo/A/hirvrcfgfw/rirvrcfgfw/rirX1yLwb8P64q765F4N+H9cV
d9di8G/D+uKtfXovBvw/riqVa/5X8r+abR7TV7GO55CiyMoWZP8AKjkHxKR7HFXzB5n0XXfys8/R
NZXBJgIudOujsJYGJUpIB8ijj+oxV9VeWtfs/MGhWWsWf9xexLKErUoxHxI3up2OKplirsVdirsV
Q+oMy2Fyy/aWJyvzCnFXhP8AziwqvL5nmYcpQLIBz1oxuC2/uVGKvficVaxVrFWicVaJxVrFWsVa
JxVonFWsVaxVrFWicVaxVrFWicVaJxVrFWsVaJxVonFWsVaxVdCSJkp/MP14q8V/5ypRBJ5ZkCjm
wvVZu5CmAgfRyOKsn/5x3vJX8lwWzElQZmSvbjMR/wAbYq9XxV2KuxV2KofUv+Oddf8AGGT/AIic
VeE/84pn/lKP+jD/ALGcVe+nFWsVaJxVonFWsVaxVonFWicVaxVTSaKQsEdXKHi4Ug0PgadMVXYq
0TirWKtYq0TirROKtYq1irROKtE4q1irWKtE4quh/vo/9YfrxV4t/wA5WH/lF/8Ao/8A+xbFU/8A
+cc/+UVg+Vx/yfGKvX8VdirsVdiqH1L/AI511/xhk/4icVeD/wDOKJr/AIp/6MP+xnFXvx64q0Ti
rROKtYq1irROKtE4q1iry7/nI3Xdc0f8tppdJleB7q6itbueMlXS3kVy3FhuOTKqH2OShzcfVSIh
s+WPK3mLzH5N1PT/ADFpUxjMhY0qfTmVG4yQyr3B/CoI3wxzRnKUOsf08vx5Oow6kCZA+qPP4vtH
yF540vzl5fg1axIUuKTwVq0cg+0p+WRIp3kJiQsMjwM2sVaJxVonFWsVaxVonFWicVaxVrFWicVa
JxVdD/fR/wCsP14q8V/5yuNP8Lf9H/8A2LYqyD/nHL/lFLf5XH/J8Yq9gxV2KuxV2KofUv8AjnXX
/GGT/iJxV4N/ziea/wCKf+jD/sZxV78euKtE4q1irWKtE4q0TirWKtYqxL81vL/+IPy813TAvOV7
Vprde5lt6TRgfNowMIO7VmjxQIfKv5caPH5o0rUPLLJzuC4ubIihdZCpVitaV+wNu9aZoO15ZcOp
x5sQskGJHfW9ffTw3afi49RjyYhcjcSO+t6++neQ/Omv/lh5ueO5RmsmYJqFoK8ZI67SR1pv4fcf
bd6fUw1GMTgdj+KLv+z9fGcROO8T+Pm+wtA1/S9f0m31bS51uLK5XlHIv4qR2IOxGTd9GQIsJgTi
lonFWsVaxVonFWicVaxVrFWicVaJxVrFV0H9/H/rD9eKvFf+csDT/C3/AEf/APYtirIP+ccP+UTt
/lcf8nxir2HFXYq7FXYqh9S/4511/wAYZP8AiJxV4J/ziYf+Uq/6MP8AsZxV7+x3OKtYq1irROKt
E4q1irWKtYqtNCKffir430uN/I/51XNhGOMVtfSRQKdqxlxNb/fRM13bECcHGPqxkTHwP6nke2YG
EDIfVikJj4H9T3L83vyj0/zhp51bS1C6gV9UFBu3IV5oB15ftL+11HxdcXJCWKfj4NxLeUf53mP6
X3/fPWaSUZfmdPvxbzh/O/pR/pff7+fBvIvn/wA2fldr72s8bTabIwN7pzMeDrWnqwt0D0Gx+g+2
30+px54ccDY/HNy9B2hGceKBuJ/HzfWXlLzjoHmzSI9U0W5E8DUEqHaSJ6VMcqdVYfj1FRljvYZB
IWE5xZtYq0TirROKtYq1irROKtE4q1irWKroD+/j/wBZf14q8U/5yzP/ACiv/R//ANi2Ksh/5xv/
AOUSt/lcf8n8VexYq7FXYq7FUPqX/HOuv+MMn/ETirwL/nEo/wDKVf8ARh/2M4q+gG6nFWsVaJxV
onFWsVaxVrFWicVaxV8s/wDOTmjyaV5/03zBAvEahbo/PxuLNgp39kMeRnATiYnkRTqO0cQlseUh
T3v8u9cj1Tyhp9wjBuMYj27Koqg/5Flc0vZ2Q+CIn6oXE/D9jgdjZydOIn6oXE/5v7KST8yvyp0T
zfaPII1h1EVZZBReR7mtPhb36Hv4hy4JRn4uE8M+o/hl7/Pza9ZoDxnLgPDk6j+GXv8APz/tfNz2
/n38q/MZu7KSS2dG9N5KVhlXr6c0ZqCD2+9T3zP0mvhm9J9OQc4nn8O8ea6LtHikY/RkHOJ/G483
0P8All+eXlzzisVhdldL8wGi/UpG/dzN427n7Vf5D8Xz65mvQ4dTGe3IvSicXJaJxVrFWsVaJxVo
nFWsVaxVonFV8H9/H/rL+vFXiX/OWp/5RX/o/wD+xbFWRf8AONv/ACiNt8rn/k/ir2PFXYq7FXYq
h9S/4511/wAYZP8AiJxV4D/ziQa/4r/7d/8A2M4q+gW+0fniq0nFWicVaxVrFWsVaJxVrFWsVeP/
APOT2gfpDyBFqaJWXSLpJGbwhn/cuP8Ag2jP0YuHrY3C+5LP+ccPMP1ny1LpzvV7Y/Cv+qaE/wDA
NGM0BHh6mcekqkPuP2vNaSXh6jJDpKpj7pfbT2D1cyOJ2nGlfmDy/o+vWbWuowLIpBVXoOQB6jcE
Eex2yjPhjk57SHIjmHE1Wlx5x6tpDlIcx7i+c/zC/IvVNFke+0X9/aA8goqKb9iSSp9mPybtksXa
M8Xpzbx/nj/fDo4I1WTTms3qh/PH++HRGfl3/wA5C6/5flXSPNyS6jp8Z9P6y3+9kFNqNyp6oH+V
8XuembqMxIWDYeg0+u2Fnij3vo/QfMWieYNNj1LR7yO9spOksZ6GlSrqaMrCu6sAck7SExIWEwxZ
NE4q0TirWKtYq0TirROKr4P7+P8A11/XirxL/nLc0/wp/wBvD/sWxVkf/ONf/KH23yuf+T+KvY8V
dirsVdiqH1L/AI511/xhk/4icVfP/wDziMa/4r/7d/8A2M4q+gm+0fniq0nFWsVaxVrFWicVaxVr
FWicVSbzhoa695W1bRiAWvrWWGMt0EjIfTb/AGL0OLDJHiiQ+Yf+cf8AWn0/zXJYSEotxQFOhqf3
ZBB/ymQ/Rmk7Tjwzx5PPhPx5fa8brfRmx5PMxPx5fa9k8y/mZb+XPMMdjqkYjsJwPRuOhLcQTVie
HcgA06dcwfHyccgI8UYgcufv82rJrssc0oiHFCIHL6t+vn3Mo03XtM1OIS2VwkwIqVBowHiVO+W4
9RGfIuZh1kMo9Jv7/kjGkVlKsAVIoQdwQcsMm4yt5x5+/J7Q/MMT3Fmgtr4AleNAPGint/qnb/Vy
iHHhPFiO3WJ5H3dzrTp5YjxYDXfA/Sfd3H7HiNvP59/K/XzcWcrwfEFlUgm3nUbhJoz7Hbv3U983
Ok10M2w2mOcTzdhou0RI0PTMc4n8bjzfR/5Z/m/oHne2EApY65GtbjTnavIDq8Lbc1/Ed/E5oL0W
DUDJ72eE4XIaxVrFWicVaJxVrFV9v/vRF/rr+vFXiP8Azlyaf4U/7eH/AGLYqyT/AJxq/wCUOtvl
c/8AURir2TFXYq7FXYqh9S/4511/xhk/4icVfPv/ADiGf+Us/wC3f/2M4q+g3PxH54qtxVrFWsVa
JxVrFWsVaJxVonFWsVfIHm2yfyn+dl8kdYoZLz1oSNgI7wCRaeyNJT6M13aWLjwyA5jcfDd5XtnA
TCYHMeofDdnX57aeuqeVbTWIkNUVJPkPtAf8DI5+jNRpctZ4S6SFfpDq4ZR42PIOUxw/P1ReK6Dr
vmjTVa40qWb0LUhpAoLxx8q0J/krTqKZuc+ixZd5D1d42Pzdlm0GPL6jHcdRsfmHpfln/nITUIOE
Osw+qgoDKKtsPf7Y+nlmuydn5YfRLjHcefz/AFuGdNqMf0S8SPdLY/P9b1by9+ZHljW4g1vdoj7c
kdhQE/5Xb/ZUPtmGcpiamDE+f6+TWNaAamDCXn+g8kf5h8v6Vr9i9rfRK/JaJIQCRXfv1Ht/HfHJ
Hi35SHI9QnPijk35SHIjmHzl528g635K1VNR02SRIInEtvcxMQ8RB2ZWG9B947+J2mi7QMjwZNp9
D0l+3yb9JrpCQhk2ydD0l+3ye5/k5+cUHm61Gl6sUh8w26jlSircqNvUQdm/mX7s24NvVabUcYo/
U9QwuU0TirROKtYq1iq+3P8ApEX+uv68VeIf85eH/lE/+3h/2LYqyX/nGj/lDbX5XP8A1EYq9lxV
2KuxV2KofUv+Oddf8YZP+InFXz5/ziCf+Us/7d//AGM4q+g3+0fmcVW4q1irROKtYq1irROKtE4q
1irWKvm//nKfQjDrOi6/EKfWIXtJnG1Hgb1IyfdhK3/A5XMOr7QhuD3p3p8sXmX8ryrDkRES1TWl
Ryf/AIFJGXOOkDjsdYS+439zwxBhjMf4sUtv8039zyb8qL79G+dVs7kDhcB7eRG3HNDXv/qkZ1+K
YkARyL2fZ+UGQI5SD3rzF+RPkfzHbC7tYTpt3Mob1INl5Eb1X5+NctMXZZNNCXR475p/Ivz15Yka
+0stf20VSJrUkSqPdRv/AJ9MqyYRIURYddqOzrFVxRQ/lP8AOHzBocos9UDSwIeLq60ZTv1TanX9
mnvXNNm7MrfEa/onl8O55/L2dLH/AHRr+ieXw7nsllrflvzpo7Qo6SLKprGaMVNNytetO4+8DNXP
nwyBjIfMeYcKchk9EgYzHzHmP1vA/NWhar5G80x3Ni5h9KT1LSVTUKRvx91IPfqNj3ze9n6w5I1L
648/Pzdr2drJS2l/eQ+3z+L6h/LfzxbebvLlvfKQt0F43MVdw67N+ObUG3rcWQTiCGVk4WxrFWsV
aJxVfb/70Rf66/rxV4h/zl8f+UT/AO3h/wBi2Ksl/wCcZ/8AlDLX5XP/AFEYq9mxV2KuxV2KofUv
+Oddf8YZP+InFXz1/wA4fmv+Lf8At3/9jWKvoR/tt8ziq3FWicVaxVrFWicVaJxVrFWsVaJxV5r/
AM5BaF+lfy1vZUXlNpkkd7H40Q8JP+ScjH6MjMbOLrIXjPk8y/IzVEn0m70uYBlSoKk9UrWn0+of
uzlu0ocOUnpIA/oeG1kOHMe6cQfls8880Qy6B57ebvDOs+3ejUf72Vs2nZmS8Q/o7fJ2PZOYjHHv
ga+X7H1z5M1Bb3QoXVuVBsfEHev31zbvZBPCcVYT56/KTyj5ugdrm3FpqVD6WoW4CyA9uY6OPY4D
G2nLgjMb83zlr/lnzn+WGvI0tWtJGrb3cXL0JwprSv7Eg8Oo+WYGr0kcoqXPoe557tDs4SFS+Eu7
8dzMNa1LTvP3k1plKrqdqOhoCTtToNmDNuOlCSPbnxKWnygy5j7Yl5o5JYMgM/qjz/pRP45JH+Q/
mqbR/Mz6dIxEN38QjP8AvxPtCniy/qzqscnttBl34e99Uo6uiupqrAFT4g5c7Z2KtE4q1iq+2/3o
i/11/Xirw/8A5zANP8Jf9vD/ALFcVZN/zjL/AMoXafK5/wCojFXs+KuxV2KuxVD6l/xzrr/jDJ/x
E4q+eP8AnD01/wAW/wDbu/7GsVfQr/bb5nFVpOKtYq1irROKtE4q1irWKtE4q0TiqE1bToNT0u80
64FYL2CS3lHX4ZUKN+BxKJRsU+RvyyuZ9D87TabdUSRZHt5g2wWSJjG3/AhmzQdq47gJdx+94ftb
FQjL+bKvnsmH526YE1G3v0ApIOLU7VG1fpRj9OY/ZGXeUfj+hx+ysvrlHvAP6C9Z/IPXvrvlm3hd
qvHH6TDvWI8RX5qK50sDYe50s+LGHq2SchrFUs8x+XtJ8xaPcaTqsIms7haMP2lb9l0O/FlO4OAi
2E4CQovkzUtK1P8ALvzrPpN8xe1JB9UCizW7k+nMB4jv7gjNV2hpPFhX8Q5PJ9rdn8cTH+Icvx5p
dPJ+iPPUdzEaRi5jmBHQpLQvT6GIw9n5eLFEnpt8k9k5yccCeY2+Wz698sXn1rR4XJqyjifur/Gm
bV65NScVaxVrFV9t/vTF/rr+vFXh3/OYRp/hL/t4/wDYrirKP+cY/wDlCrT5XP8A1EYq9nxV2Kux
V2KofUv+Oddf8YZP+InFXzv/AM4dH/lLv+3d/wBjWKvoWQ/G3zOKrcVaxVonFWicVaxVrFWicVaJ
xVrFWsVfJ35vad/h384Li6UcLe9eK/Q9KrOOMx+mRZM1+txcUZR7w832tp+ITj/OH4+1kf5kQfpb
ycLoENLGokPEftU5P9xQr9OcxoMvDmHv+95HRZuHNE+f+6/UUB/zjxrv1bUrmxdqDmsyD2YcX+4K
PvzscJ6PoHZ09jF9M5c7JonFWicVeQf85I+Vo9Q8pw69Ev8ApWkSgSsOpt52CEHx4ycSPDfKso2t
wNfjuPF3PnC/u/rSWrE1kihELn/UZuP/AAnHMHFDh4vM3+Pi6HDj4DLuMr+dfpt9d/lrdtPoq8vt
FEc18TWv8M2YesibDL8UtYq1iq+2P+kxf66/rxV4d/zmKf8AlEf+3j/2K4qyj/nGL/lCbT5XX/UR
ir2jFXYq7FXYqh9S/wCOddf8YZP+InFXzr/zhwf+Uv8A+3d/2NYq+hpPtt8ziq3FWicVaJxVrFWs
VaJxVonFWsVaxVonFXg3/OUmhcrTRdeRd4nksp28Q49WL7uD/flGcdXWdow2Ekr8q3o1fyUIpGLv
6RRlArUr8QH+ykVs4nVx8PP+PeHznVx8PMY+f7Q898iXbaJ57gjY0QyvbOfEE/D97KudfpsnFR73
uOzc9mMv5w+99habcfWLCCWteSCp9xsfxGZz0KIJxVrFULqenWWp6fcaffRCezuo2iniatGRhQjb
cfMYCLRKIIovEL3/AJxytLPVBPZzS31gG5JBIUBG+yyEAch8srGEOFHs+AN29Y8p6HNpdqRNs7AA
L+J6Za5ye4q1irROKqlt/vTF/rr+vFXhn/OY5/5RD/t4/wDYrirKf+cYP+UHs/ldf9ROKvacVdir
sVdiqH1L/jnXX/GGT/iJxV85/wDOGxr/AIv/AO3d/wBjWKvoiT+8b5nFVhOKtE4q1irWKtE4q0Ti
rWKtYq0TirROKsK/OPQv0z+XOs26rynt4vrkPchrYiRqe5RWX6cryi4lx9XDixl4J+U2pssdzZcj
VD6kajx6j7qNnIduY9hMfinzrt3GQRMfiv2Fjvni1fS/NRuIAVqyTQk+KH4fwUHNn2bm4sQP473a
dkZrxCv4T+0Pqb8u9Wj1Hy7BKhqpVJE/1XWo/Vm/Bt7eMrAPeyfCyaxVonFWsVaxVrFWicVaxVUt
f96Yv9df14q8L/5zJNP8If8Abx/7FcVZV/zi/wD8oNZ/K6/6icVe1Yq7FXYq7FUPqX/HOuv+MMn/
ABE4q+cv+cNDX/GH/bu/7GsVfREn943zP68VWE4q1irWKtE4q0TirWKtYq0TirROKtYqpyxRzRPF
KoaORSrqehUihGKkPj/RoH8s/mBd6VMWC21xNase7LG5of8AZIu3zzQdo4eLGQ8P2xp7xkH+E/Zy
TT81dOJitr0KeSMY5GJrv0P3UQZquw8h4TE9HUdg5SCYn8EfsL0b/nHvXPX0ZLR2q0JeEj5fEv8A
wtBnXYJXF9E0M+LGPJ7LlzltE4q1irWKtYq0TirWKtYqqWv+9UP+uv68VeF/85lmn+D/APt4/wDY
rirKv+cXf+UFs/ldf9ROKva8VdirsVdiqH1L/jnXX/GGT/iJxV84f84Ymv8AjD/t2/8AY1ir6JlP
7xvmf14qsxVrFWicVaJxVrFWsVed+efzw8oeV3ks4nOq6rHs1pbMOCMO0s26r7gciPDKZ54xcTNr
YQ25l41rH56fmbrszppjjTrcmgisogzAduUsgdq+445iZNWRzNOpz9pyHMiISFj+Z+qMWm1DULgk
1PO6lencbB2pmJLWx7y62XasT/FI/Nr9C/mRCRItxeqwPwsJ5VNfY1GAa6HexHakO+X2q9p5z/Nv
SCGh1a/YJSiySfW1AH+TJ6q0+jLoawdJOTi7WHSfz/ax/WPMmp6r5jbXNR4/pB3jecxoIwzRqqV4
jYEhd8ch4wb6p1B8YG/4g9H8xW66p5SLIOR9IOrE1J4/DX/ZOFOczpT4WpI79/1/peP0kvC1H2/o
KWfkXrRsvME1qTtKFlQe6GhH01GdjppbkPonZs9zF9RhgwBU1B3BzMdu7FWsVaxVonFWsVaxVrFV
S1P+lQ/66/rGKvCv+czjT/B//by/7FcVZX/zi5/ygll8rr/qJxV7ZirsVdirsVQ+pf8AHOuv+MMn
/ETir5v/AOcLzX/GP/bt/wCxrFX0TL/eP8z+vFVmKtE4q0TirWKrWYAFmNFG5J6AYq+c/wA2Pzuv
tWuZfL3lKZo9Pr6VxqEVRJcHoUiI3WP3G7f6vXAz6noOTpdZr+Yiaj3sf8j/AJRXurss15RYtiwb
ZBUV3p1/z6jNTLUSmeGH4/Hzec/MZM0uHFsO/wDH9r23Q/y58paVEgeL6w6UpX4FBHcBaEfQae2S
jpIc5kyPyH6/tcvF2VhG+Qmcvl+37fgnUlp5fRSBp9sfdokY/ewJyUsOAfwR+QciWm0w/wAnD/Sg
/ek2p2GgzKR9UijPZolEZH/A0zBz6fBIfSB7tvudbqtHppj6Ij3bfcwnVLZbeb0OXrQfaQOAw+kH
bNDljLFKok08pqsUsM+GJPD0SDU/LmjaihWeAK+9JEG4qfD+CkZkYO0skDvu2aftDJjP4+7kiNO0
0WuljTi6zbMkbGtACoVKkgfZIrhy6mM80ZD4/FGXOJ5RIfi3m+g3J0bztbuDxRbjh7cJdhX5cgc6
3S5NwXu+zc+8Jd/9j670O6FzpVvIDX4Qv3dPwzbvUo7FWsVaJxVrFWsVaxVonFVS1/3qh/11/WMV
eFf85oGn+Dv+3l/2K4qyz/nFr/lA7L5XX/UScVe2Yq7FXYq7FUPqX/HOuv8AjDJ/xE4q+bf+cLTX
/GP/AG7f+xrFX0VL/ev/AKx/XiqwnFWicVaxVrFXiv8AzkP+YU2n2aeU9Nk43N/H6mpSKd1tyaLE
Kd5KfF/k/wCtmJqstekOs7Q1HCOAdebzryP5WigWK7u1BuJyBGrCoUE038aeHc+w35nXavfhi8J2
hreOQhHlf4P6ns1pqMNtAkMXwonTx9yfc4MeYRFBz8WeMIiI5Kja1/lZM6lmdWhZtZ2+1lMtS0T1
aV3WsdfizFyahw8mrSK8vTPLWuw2GYWQmRdNqMnHJD+plfA0cLvUx4F4Xm/n20MGt/WEoBMOQK7A
N9rb5BgM6vRZOKAL2HZeXix/jr+19H/lTra6p5bhk5AsyK5A7NSjj6DQZ0cJcQBe7xT44iXezXJN
jROKtYq1irWKtE4q1iqpa/71Q/66/rGKvCf+c0jT/B3/AG8v+xXFWW/84sf8oFY/K6/6iTir23FX
Yq7FXYqh9S/4511/xhk/4icVfNf/ADhWf+Uy/wC3b/2N4q+i5T+9f/WP68VWE4q1irWKrWYKCSaK
NyT0pir46ub+Tzb5/vdVnYmO5uGmUsCeMQbjEtPBE4/dmh1OXmXjO09RtKX877v7GbLNxKlPhCU4
DwC9PuzmZ3I2Xi5EmVo9NZenxbHIHiDd48lx1diOuQ459ynUSUJNTkbocHDMsDlkUO9y79Tkhiaz
ZWerkuBHC71ceBeF3q48C8LG/PsKSaVBOTV0cqPYCn/VQ5t+zjQp3fZEiJV7/wBbNv8AnH3UpFtD
bk/AszxgexCt/wASkzptIbh8Xv8As6V4/cXuZOZTntYq1irWKtE4q1irWKqlp/vXD/xkX9YxV4R/
zmof+UN/7eX/AGKYqy7/AJxX/wCUBsfldf8AUUcVe3Yq7FXYq7FUPqX/ABzrr/jDJ/xE4q+af+cK
DX/GX/bt/wCxvFX0ZMf3r/6x/XiqzFWsVaJxVB6wsr6TepDX1mt5RHTryKGn44JcmM+RfH/kR0TU
ZqkA+k1K/wCow/jnN5xcS8F2kPSPj9zL/WzU+G87wu9bHw14Xetj4a8LvWx8NeF3rY+GvC71sfDX
hd62Phrwu9bHw14WO+d74CzgswQWZjIw7itP6Kc2Olx8Idz2Zio3+N2ffkdp8sNrbyEU9eX1iPYu
oH/CxVzodJGoe97rs+FYve90zJc5rFWsVaJxVrFWsVaxVUtD/pcP/GRf1jFXg/8Azmuaf4N/7eX/
AGKYqy//AJxV/wDJf2Pyu/8AqKOKvb8VdirsVdiqH1L/AI511/xhk/4icVfNH/OExr/jP/t2/wDY
3ir6Nm/vX/1j+vFVPFWicVaJxVrFXyL520G58k+fbq34FbNpDPZNTZraRuS0r14EcT7jNHqMfDIh
5PtHS0TH4hMfrEbok0RrFIKqf1j6MwJYqeVniotevkfDYcDvXx8NeB3r4+GvA718fDXgd6+PhrwO
9fHw14Ft1fwWMBnuDTascfdiem3h+v8AHJxw97fh05kWMafY33mbW6GojJ5TydQkdfHxP68zsGIz
NB6bQ6OyIj4l9K+QNCWzt1l4cEjULGvhtQD/AGK/rzdgUKeriABQZlhS1irROKtYq1irWKtE4qq2
n+9cH/GRf+JDFXg3/ObJp/gz/t5f9imKsv8A+cVP/JfWHyu/+oo4q9wxV2KuxV2KofUv+Oddf8YZ
P+InFXzN/wA4SH/lM/8At2f9jeKvo6b++f8A1j+vFVMnFWicVaxVrFWGfmf+Xlp5z0P0AVh1W05S
adcnoGI3jf8AyHoK+Gx9jRqMIyDzcXVaYZY+Y5Pmb1NY8tahPpGrW7xPC3Ga3fqpHRloaEHqCD8s
00gYmi8lqtGbN7STaOeC4T1LWUOvUoSAw/VX9ftiIguqlho7tO0kbFXUow6qwofxw8AYmFLfWOPC
EcLvWOPCF4VbhMK+p+6AoSZPhoD3p9oj5DHgDLw0vu/MFnbDjb/v5qfaNOI+XUfr+jImg5OLSE89
kHpuja35ku/U3EXL95cPXgteoX+Zvb78tw4ZZDtyd1o9CZbRG3UvbvIP5ew2kSLHHwjUhpZHHxM3
i3v4L2zcYsQgKD0mDBHHGg9SghigiWKMcUQUAyxuX4q0TirWKtYq1irROKtYqq2f+9cH/GRf+JDF
Xgv/ADm2f+UM/wC3n/2KYqzD/nFL/wAl7YfK7/6ijir3HFXYq7FXYqh9S/4511/xhk/4icVfMv8A
zhEf+U0/7dn/AGN4q+jpz++f/WP68VUycVaxVrFWicVaJxVjPnX8v/Lvm6z9LU4eN1GKW99HQTR9
6A91/wAk7ZVlwxmN2jPp4ZBUg8B80fkr5x8vyvNZD6/ZrutxB8Lgf5Sk7ffmtyaKcfp3dNn7LmOX
qDFHvvMmnq0dwksaftLIjKD93GuYx448w6vJouHmDFYvmS7VQvowmncoCfvNTkfELT+VHf8Ac6PW
9alUw2wajbFIlY1r7VOESkeTOGjHIWUTb+WPNWpMOcLxof2pz6aj/Yn4vuXLY6bJLp83Pw9mz6Rr
3/i2a+WvygaWRGu1a6k6+mAVjH0fab8Bmbi0MRvLd2uHsyMd5b/c9e0DyHaWKIZ1UcAOESAAAeG2
y/R9+ZwFcnZAACgyuOOONAkahUXYKNhhS3irROKtYq1irWKtE4q1irWKqtn/AL2Qf8ZF/wCJDFXg
v/Obp/5Qv/t5/wDYpirMf+cUP/JeWHyu/wDqKOKvccVdirsVdiqH1L/jnXX/ABhk/wCInFXzH/zg
+a/40/7dn/Y3ir6PnP76T/WP68VU8VaxVonFWicVaxVrFWjiqWXvl3RLwlp7SMuerqODfetMVSiX
8uvLTsWETKT13B/WMHCEcIXR+QNBSm0hA6Dl/ZhSj7byzolsQY7YEj9o9fwpiqZRxxRLxjQIv8qg
AfhireKtYq0TirWKtYq1irROKtYq1irWKqtmf9Mg/wCMif8AEhirwT/nOA0/wX/28/8AsUxVmX/O
J/8A5LvT/ld/9RRxV7lirsVdirsVQ+pf8c66/wCMMn/ETir5g/5wgkVJ/Olu54zkacwjOzUQ3Qbb
2LCuKvpG4qJpK/zH9eKqeKtE4q0TirWKtYq0TirWKtYq1irROKtYq1irWKtE4q1irWKtYq0TirWK
tYq1irROKq1iCbyAAVPNT9xrirwD/nOGaMy+TIgwMiLqTsncKxtQp+nicVZt/wA4nhh+XWn1BB43
Z38DdEjFXuWKuxV2KuxVbJGskbRt9lwVb5EUxV8Y6ze63+RH543GtRWzT+XtWaQywLRVltpnDyxp
XYPDJRk9qdicVfVPlPzx5J876fHf+X9UhvA61eFHC3EZ7rLCfjQj3Hy2xVPP0dF/M34Yq79GxfzN
+GKtfoyL+dvwxV36Mi/nb8MVd+i4f52/DFWv0VD/ADt+GKu/RUP87fh/TFWv0TD/ADt+GKu/RMP8
7fhirv0RB/O34f0xVr9Dwfzt+H9MVd+h4P52/D+mKu/Q0H87fh/TFWv0LB/O34f0xV36Fg/34/4f
0xVr9CW/+/H/AA/pirv0Hb/78f8AD+mKtfoO3/34/wCH9MVd+grf/fj/AIf0xV36Ct/9+P8Ah/TF
Wv0Db/78f8P6Yq79AW3+/H/D+mKpN5n84eRPIlhLqGvanDacVJSKRw1xJ4LFCvxuT7D57Yq+IvzF
87a9+cH5kLcWtu0ccvG00myJr6NshLcpCNqmrO5+joBir7H/ACe8uR6FoVtYwD9zaW6RBiKFiafE
fduFT88VehYq7FXYq7FXYqxP8xvy38v+etDk0zVYlL0rBPSrI46Ed/uxV8j+b/8AnFvzbpN66WEy
ywEn0zMGK8faSMNX6UGKsd/6F88/eNr/AMFP/wBUsVd/0L55+8bX/gp/+qWKu/6F88/eNr/wU/8A
1SxV3/Qvnn7xtf8Agp/+qWKu/wChfPP3ja/8FP8A9UsVd/0L55+8bX/gp/8Aqlirv+hfPP3ja/8A
BT/9UsVd/wBC+efvG1/4Kf8A6pYq7/oXzz942v8AwU//AFSxV3/Qvnn7xtf+Cn/6pYq7/oXzz942
v/BT/wDVLFXf9C+efvG1/wCCn/6pYq7/AKF88/eNr/wU/wD1SxV3/Qvnn7xtf+Cn/wCqWKu/6F88
/eNr/wAFP/1SxV3/AEL55+8bX/gp/wDqlirv+hfPP3ja/wDBT/8AVLFXf9C+efvG1/4Kf/qlirv+
hfPP3ja/8FP/ANUsVd/0L55+8bX/AIKf/qlirv8AoXzz942v/BT/APVLFXf9C+efvG1/4Kf/AKpY
qi9M/wCcc/OVxcBLueCCLu8Ylkb/AIFlj/Xir3r8rPyT0zy4P9FhM97IB691LQuR1oxAoif5I698
Ve76bYR2NqsKbnq7eLHviqKxV2KuxV2KuxV2KrZIo5VKSIHQ9VYAj8cVQp0bSyf95k+7FXfobS/+
WZPxxV36G0v/AJZk/HFXfobS/wDlmT8cVd+htL/5Zk/HFXfobS/+WZPxxV36G0v/AJZk/HFXfobS
/wDlmT8cVd+htL/5Zk/HFXfobS/+WZPxxV36G0v/AJZk/HFXfobS/wDlmT8cVd+htL/5Zk/HFXfo
bS/+WZPxxV36G0v/AJZk/HFXfobS/wDlmT8cVd+htL/5Zk/HFXfobS/+WZPxxV36G0v/AJZk/HFX
fobS/wDlmT8cVd+htL/5Zk/HFXfobS/+WZPxxVw0bSwf95k+7FUVHFHEoSNAiDoqgAfhiq7FXYq7
FX//2Q==</xapGImg:image></rdf:li></rdf:Alt></xap:Thumbnails></rdf:Description><rdf:Description
   rdf:about="uuid:6fb7133e-0d42-4d20-8954-32780fe62e43"><xapMM:DocumentID>
uuid:ed137d39-db88-465a-86b4-e2eb2fd20abb</xapMM:DocumentID></rdf:Description><rdf:Description
   rdf:about="uuid:6fb7133e-0d42-4d20-8954-32780fe62e43"><dc:format>
image/svg+xml</dc:format><dc:title><rdf:Alt><rdf:li
   xml:lang="x-default">
mime.ai</rdf:li></rdf:Alt></dc:title></rdf:Description></rdf:RDF></x:xmpmeta><xpacket>
end='w'</xpacket></metadata><path
   opacity="0.2"
   d="M108.139,43.324c-1.789,0.819-2.944,2.618-2.944,4.584l0.172,1.303c0,0,28.258,105.463,29.143,108.764     c-4.013-1.196-8.281-1.975-12.749-2.266c-8.533-0.554-16.573,0.702-22.057,3.445c0.044-0.021,0.102-0.052,0.147-0.071     c-10.88,4.466-19.922,13.87-23.036,23.96c-0.772,2.502-1.164,5.011-1.164,7.455c0,4.198,1.18,8.19,3.413,11.546     c4.728,7.788,12.795,13.416,22.696,15.813c9.539,2.31,20.407,1.526,30.602-2.206c0.067-0.026,0.146-0.056,0.146-0.056     c12.799-5.331,21.341-12.634,24.766-21.142c1.099-2.733,1.656-5.554,1.656-8.382c0-3.06-0.663-6.192-1.962-9.312     c-0.02-0.073-20.335-75.887-21.306-79.511c2.24,0.896,5.721,2.287,5.721,2.287c7.285,2.806,15.542,5.987,22.465,10.881     c7.6,5.373,12.373,12.013,14.593,20.3c0.672,2.506,3.109,4.085,5.671,3.674s4.383-2.675,4.235-5.266     c-1.615-28.262-18.805-39.433-37.003-51.26c-12.903-8.389-26.238-17.057-36.934-32.791     C113.021,43.032,110.384,42.296,108.139,43.324z"
   id="path3253"
   style="font-size:12;opacity:0.2;"
   transform="matrix(1.254642,0.000000,0.000000,1.254642,-32.57354,-32.16346)" /><path
   opacity="0.2"
   d="M106.139,42.324c-1.789,0.819-2.944,2.618-2.944,4.584l0.172,1.303c0,0,28.258,105.463,29.143,108.764     c-4.013-1.196-8.281-1.975-12.749-2.266c-8.533-0.554-16.573,0.702-22.057,3.445c0.044-0.021,0.102-0.052,0.147-0.071     c-10.88,4.466-19.922,13.87-23.036,23.96c-0.772,2.502-1.164,5.011-1.164,7.455c0,4.198,1.18,8.19,3.413,11.546     c4.728,7.788,12.795,13.416,22.696,15.813c9.539,2.31,20.407,1.526,30.602-2.206c0.067-0.026,0.146-0.056,0.146-0.056     c12.799-5.331,21.341-12.634,24.766-21.142c1.099-2.733,1.656-5.554,1.656-8.382c0-3.06-0.663-6.192-1.962-9.312     c-0.02-0.073-20.335-75.887-21.306-79.511c2.24,0.896,5.721,2.287,5.721,2.287c7.285,2.806,15.542,5.987,22.465,10.881     c7.6,5.373,12.373,12.013,14.593,20.3c0.672,2.506,3.109,4.085,5.671,3.674s4.383-2.675,4.235-5.266     c-1.615-28.262-18.805-39.433-37.003-51.259c-12.903-8.389-26.238-17.057-36.934-32.791     C111.021,42.032,108.384,41.296,106.139,42.324z"
   id="path3254"
   style="font-size:12;opacity:0.2;"
   transform="matrix(1.254642,0.000000,0.000000,1.254642,-32.57354,-32.16346)" /><path
   fill="url(#XMLID_9_)"
   d="M104.139,40.324c-1.789,0.819-2.944,2.618-2.944,4.584l0.172,1.303     c0,0,28.258,105.463,29.143,108.764c-4.013-1.196-8.281-1.975-12.749-2.266c-8.533-0.554-16.573,0.702-22.057,3.445     c0.044-0.021,0.102-0.052,0.147-0.071c-10.88,4.466-19.922,13.87-23.036,23.96c-0.772,2.502-1.164,5.011-1.164,7.455     c0,4.198,1.18,8.19,3.413,11.546c4.728,7.788,12.795,13.416,22.696,15.813c9.539,2.31,20.407,1.526,30.603-2.206     c0.067-0.026,0.145-0.056,0.145-0.056c12.799-5.331,21.341-12.634,24.766-21.142c1.099-2.733,1.656-5.554,1.656-8.382     c0-3.06-0.663-6.192-1.962-9.312c-0.02-0.073-20.335-75.887-21.306-79.511c2.24,0.896,5.721,2.287,5.721,2.287     c7.285,2.806,15.542,5.987,22.465,10.881c7.6,5.373,12.373,12.013,14.593,20.3c0.672,2.505,3.109,4.084,5.671,3.673     s4.383-2.675,4.235-5.266c-1.615-28.262-18.805-39.433-37.003-51.259c-12.903-8.389-26.238-17.057-36.934-32.791     C109.021,40.032,106.384,39.296,104.139,40.324z"
   id="path3261"
   style="font-size:12;fill:url(#XMLID_9_);"
   transform="matrix(1.254642,0.000000,0.000000,1.254642,-32.57354,-32.16346)" /><path
   fill="url(#XMLID_10_)"
   d="M123.575,84.502c11.822,9.323,47.372,11.643,55.481,41.911     c-2.525-44.232-46.158-41.911-73.072-81.504l31.825,118.777c-11.178-7.004-30.468-7.838-40.105-3.02     c-15.722,6.338-26.46,23.965-18.682,35.607c8.389,13.984,28.279,18.621,47.352,11.643c16.753-6.98,27.621-18.625,21.538-32.586     L123.575,84.502z"
   id="path3268"
   style="font-size:12;fill:url(#XMLID_10_);"
   transform="matrix(1.254642,0.000000,0.000000,1.254642,-32.57354,-32.16346)" /><path
   fill="#FFFFFF"
   d="M139.771,163.16c0.046,0.174,0.067,0.35,0.067,0.525c0,0.633-0.297,1.242-0.822,1.631     c-0.671,0.496-1.576,0.529-2.282,0.088c-10.991-6.887-29.518-7.227-38.122-2.924c-0.048,0.023-0.098,0.047-0.148,0.066     c-9.091,3.666-16.605,11.352-19.145,19.582c-1.053,3.412-1.667,8.441,1.391,13.018c0.019,0.027,0.036,0.057,0.053,0.084     c3.755,6.26,10.292,10.789,18.408,12.754c8.182,1.98,17.581,1.283,26.468-1.961c10.769-4.494,18.163-10.605,20.82-17.211     c0.753-1.869,1.129-3.785,1.129-5.734c0-2.273-0.512-4.592-1.535-6.938c-0.039-0.092-0.072-0.188-0.099-0.285l-24.338-90.828     c-0.046-0.175-0.069-0.351-0.069-0.525c0-0.671,0.333-1.313,0.913-1.694c0.73-0.481,1.686-0.44,2.372,0.101     c3.251,2.564,8.623,4.633,14.84,7.028c7.671,2.956,16.366,6.306,24.005,11.706c4.133,2.922,7.557,6.179,10.317,9.806     c-1.766-4.63-4.297-8.79-7.664-12.643c-6.072-6.95-14.34-12.323-23.093-18.012c-10.614-6.898-22.392-14.569-32.65-26.547     C115.031,70.833,139.771,163.16,139.771,163.16z"
   id="path3269"
   style="font-size:12;fill:#ffffff;"
   transform="matrix(1.254642,0.000000,0.000000,1.254642,-32.57354,-32.16346)" /><path
   fill="url(#XMLID_11_)"
   d="M139.771,163.16c0.046,0.174,0.067,0.35,0.067,0.525c0,0.633-0.297,1.242-0.822,1.631     c-0.671,0.496-1.576,0.529-2.282,0.088c-10.991-6.887-29.518-7.227-38.122-2.924c-0.048,0.023-0.098,0.047-0.148,0.066     c-9.091,3.666-16.605,11.352-19.145,19.582c-1.053,3.412-1.667,8.441,1.391,13.018c0.019,0.027,0.036,0.057,0.053,0.084     c3.755,6.26,10.292,10.789,18.408,12.754c8.182,1.98,17.581,1.283,26.468-1.961c10.769-4.494,18.163-10.605,20.82-17.211     c0.753-1.869,1.129-3.785,1.129-5.734c0-2.273-0.512-4.592-1.535-6.938c-0.039-0.092-0.072-0.188-0.099-0.285l-24.338-90.828     c-0.046-0.175-0.069-0.351-0.069-0.525c0-0.671,0.333-1.313,0.913-1.694c0.73-0.481,1.686-0.44,2.372,0.101     c3.251,2.564,8.623,4.633,14.84,7.028c7.671,2.956,16.366,6.306,24.005,11.706c4.133,2.922,7.557,6.179,10.317,9.806     c-1.766-4.63-4.297-8.79-7.664-12.643c-6.072-6.95-14.34-12.323-23.093-18.012c-10.614-6.898-22.392-14.569-32.65-26.547     C115.031,70.833,139.771,163.16,139.771,163.16z"
   id="path3286"
   style="font-size:12;fill:url(#XMLID_11_);"
   transform="matrix(1.254642,0.000000,0.000000,1.254642,-32.57354,-32.16346)" /><path
   fill="url(#XMLID_12_)"
   d="M87.186,176.529c1.399,5.353,10.628,7.574,20.611,4.963c9.983-2.61,16.941-9.066,15.541-14.42     c-1.4-5.353-10.629-7.574-20.611-4.964C92.743,164.72,85.785,171.176,87.186,176.529z"
   id="path3293"
   style="font-size:12;fill:url(#XMLID_12_);"
   transform="matrix(1.254642,0.000000,0.000000,1.254642,-32.57354,-32.16346)" /><rect
   id="_x3C_Slice_x3E_"
   fill="none"
   width="256"
   height="256"
   style="font-size:12;fill:none;" /></svg>
